<svg xmlns="http://www.w3.org/2000/svg" xmlns:xlink="http://www.w3.org/1999/xlink" width="20" height="20" version="1.1" viewBox="0 0 20 20"><path fill="#000" d="M0 16.5v-12c0-0.827 0.673-1.5 1.5-1.5h10c0.827 0 1.5 0.673 1.5 1.5v4c0 0.276-0.224 0.5-0.5 0.5s-0.5-0.224-0.5-0.5v-4c0-0.276-0.224-0.5-0.5-0.5h-10c-0.276 0-0.5 0.224-0.5 0.5v12c0 0.276 0.224 0.5 0.5 0.5h10c0.276 0 0.5-0.224 0.5-0.5v-4c0-0.276 0.224-0.5 0.5-0.5s0.5 0.224 0.5 0.5v4c0 0.827-0.673 1.5-1.5 1.5h-10c-0.827 0-1.5-0.673-1.5-1.5z"/><path fill="#000" d="M16.354 13.853l3-3c0.195-0.195 0.195-0.512 0-0.707l-3-3c-0.195-0.195-0.512-0.195-0.707 0s-0.195 0.512 0 0.707l2.146 2.147h-11.293c-0.276 0-0.5 0.224-0.5 0.5s0.224 0.5 0.5 0.5h11.293l-2.146 2.147c-0.098 0.098-0.146 0.226-0.146 0.353s0.049 0.256 0.146 0.353c0.195 0.195 0.512 0.195 0.707 0z"/></svg>